<?xml version="1.0" standalone="no"?>
<!DOCTYPE svg PUBLIC "-//W3C//DTD SVG 20010904//EN"
 "http://www.w3.org/TR/2001/REC-SVG-20010904/DTD/svg10.dtd">
<svg version="1.0" xmlns="http://www.w3.org/2000/svg"
 width="700.000000pt" height="700.000000pt" viewBox="0 0 700.000000 700.000000"
 preserveAspectRatio="xMidYMid meet">
<metadata>
Created by potrace 1.14, written by Peter Selinger 2001-2017
</metadata>
<g transform="translate(0.000000,700.000000) scale(0.100000,-0.100000)"
fill="#000000" stroke="none">
<path d="M2857 4661 c-351 -203 -649 -376 -662 -385 l-25 -16 0 -760 0 -760
38 -23 c20 -13 319 -187 665 -386 l627 -362 638 367 c350 202 649 376 665 386
l27 19 0 760 0 759 -37 24 c-52 33 -1270 736 -1286 741 -6 2 -299 -162 -650
-364z m623 -556 l0 -85 -320 0 -320 0 0 -210 0 -210 300 0 300 0 0 -85 0 -85
-300 0 -300 0 0 -210 0 -210 320 0 320 0 0 -85 0 -85 -425 0 -425 0 0 675 0
675 425 0 425 0 0 -85z m890 -393 c0 -271 -5 -514 -10 -562 -18 -145 -84 -251
-187 -301 -110 -53 -278 -48 -421 13 l-77 33 -3 104 c-1 56 1 101 5 99 231
-117 398 -118 457 -3 20 39 21 58 24 568 l3 527 104 0 105 0 0 -478z"/>
</g>
</svg>
